<svg width="120" height="40" viewBox="0 0 120 40" fill="none" xmlns="http://www.w3.org/2000/svg">
  <!-- Background circle -->
  <circle cx="20" cy="20" r="18" fill="url(#gradient1)" stroke="#fff" stroke-width="2"/>
  
  <!-- Design tools icon -->
  <g transform="translate(8, 8)">
    <!-- Pen tool -->
    <path d="M8 2L18 12L16 14L6 4L8 2Z" fill="white" fill-opacity="0.9"/>
    <path d="M6 4L4 6L2 14L10 12L12 10" fill="white" fill-opacity="0.7"/>
    
    <!-- Bezier curve -->
    <circle cx="4" cy="20" r="1.5" fill="white"/>
    <circle cx="20" cy="20" r="1.5" fill="white"/>
    <circle cx="8" cy="16" r="1" fill="white" fill-opacity="0.8"/>
    <circle cx="16" cy="16" r="1" fill="white" fill-opacity="0.8"/>
    
    <!-- Curve lines -->
    <path d="M4 20Q8 16 12 18Q16 16 20 20" stroke="white" stroke-width="1.5" fill="none" stroke-opacity="0.8"/>
    <path d="M4 20L8 16M20 20L16 16" stroke="white" stroke-width="1" stroke-opacity="0.6"/>
  </g>
  
  <!-- Text -->
  <text x="48" y="16" font-family="system-ui, -apple-system, sans-serif" font-size="14" font-weight="600" fill="#1f2937">FabricJS</text>
  <text x="48" y="30" font-family="system-ui, -apple-system, sans-serif" font-size="10" font-weight="500" fill="#6b7280">Design Tool</text>
  
  <!-- Gradients -->
  <defs>
    <linearGradient id="gradient1" x1="0%" y1="0%" x2="100%" y2="100%">
      <stop offset="0%" style="stop-color:#667eea;stop-opacity:1" />
      <stop offset="100%" style="stop-color:#764ba2;stop-opacity:1" />
    </linearGradient>
  </defs>
</svg>
